<svg width="29" height="17" viewBox="0 0 29 17" fill="none" xmlns="http://www.w3.org/2000/svg">
<path d="M28.0408 9.18442C28.1849 9.05583 28.2979 8.90421 28.3733 8.73824C28.4571 8.57641 28.5003 8.40141 28.5003 8.22447C28.5003 8.04753 28.4571 7.87253 28.3733 7.71069C28.2979 7.54473 28.1849 7.39311 28.0408 7.26452L22.7075 0.774728C22.4093 0.520133 22.0049 0.377102 21.5833 0.377102C21.1616 0.377102 20.7573 0.520133 20.4591 0.774728C20.161 1.02932 19.9935 1.37462 19.9935 1.73468C19.9935 2.09473 20.161 2.44003 20.4591 2.69462L24.1008 6.87243L1.74996 6.87243C1.33003 6.87243 0.927306 7.01488 0.630374 7.26843C0.333441 7.52199 0.166626 7.86589 0.166626 8.22447C0.166626 8.58305 0.333441 8.92695 0.630374 9.18051C0.927306 9.43406 1.33003 9.57651 1.74996 9.57651L24.1008 9.57651L20.4591 13.7543C20.3115 13.8804 20.1944 14.03 20.1145 14.1947C20.0346 14.3595 19.9935 14.536 19.9935 14.7143C19.9935 14.8925 20.0346 15.0691 20.1145 15.2338C20.1944 15.3985 20.3115 15.5482 20.4591 15.6742C20.6068 15.8003 20.782 15.9003 20.9749 15.9685C21.1678 16.0367 21.3745 16.0718 21.5833 16.0718C21.7921 16.0718 21.9988 16.0367 22.1917 15.9685C22.3846 15.9003 22.5598 15.8003 22.7075 15.6742L28.0408 9.18442Z" fill="#13B5EA"/>
</svg>
